<?xml version="1.0" encoding="utf-8"?>
<!-- Generator: Adobe Illustrator 15.0.0, SVG Export Plug-In . SVG Version: 6.00 Build 0)  -->
<!DOCTYPE svg PUBLIC "-//W3C//DTD SVG 1.1//EN" "http://www.w3.org/Graphics/SVG/1.1/DTD/svg11.dtd">

<svg version="1.1" xmlns="http://www.w3.org/2000/svg" xmlns:xlink="http://www.w3.org/1999/xlink">
    <view id="radio-off_view" viewBox="0 0 25 25" />
    <view id="radio-off-hover_view" viewBox="0 30 25 25" />
    <view id="radio-off-disabled_view" viewBox="0 60 25 25" />
    
    <use xlink:href="#radio-off" width="25" height="25" x="0" y="0"></use>
    <use xlink:href="#radio-off-hover" width="25" height="25" x="0" y="30"></use>
    <use xlink:href="#radio-off-disabled" width="25" height="25" x="0" y="60"></use>
    
    <symbol id="radio-off">
        <path fill="rgba(255, 255, 255, 0.8)" d="M12.5,4c4.687,0,8.5,3.813,8.5,8.5c0,4.687-3.813,8.5-8.5,8.5C7.813,21,4,17.187,4,12.5C4,7.813,7.813,4,12.5,4 M12.5,0
            C5.597,0,0,5.597,0,12.5S5.597,25,12.5,25S25,19.403,25,12.5S19.403,0,12.5,0L12.5,0z"/>
    </symbol>
    
    <symbol id="radio-off-hover">
        <path fill="rgba(255, 255, 255, 1)" d="M12.5,4c4.687,0,8.5,3.813,8.5,8.5c0,4.687-3.813,8.5-8.5,8.5C7.813,21,4,17.187,4,12.5C4,7.813,7.813,4,12.5,4 M12.5,0
            C5.597,0,0,5.597,0,12.5S5.597,25,12.5,25S25,19.403,25,12.5S19.403,0,12.5,0L12.5,0z"/>
    </symbol>
    
    <symbol id="radio-off-disabled">
        <path fill="rgba(255, 255, 255, 0.4)" d="M12.5,4c4.687,0,8.5,3.813,8.5,8.5c0,4.687-3.813,8.5-8.5,8.5C7.813,21,4,17.187,4,12.5C4,7.813,7.813,4,12.5,4 M12.5,0
            C5.597,0,0,5.597,0,12.5S5.597,25,12.5,25S25,19.403,25,12.5S19.403,0,12.5,0L12.5,0z"/>
    </symbol>
    
    <view id="radio-on_view" viewBox="0 90 25 25" />
    <view id="radio-on-hover_view" viewBox="0 120 25 25" />
    <view id="radio-on-disabled_view" viewBox="0 150 25 25" />
    
    <use xlink:href="#radio-on" width="25" height="25" x="0" y="90"></use>
    <use xlink:href="#radio-on-hover" width="25" height="25" x="0" y="120"></use>
    <use xlink:href="#radio-on-disabled" width="25" height="25" x="0" y="150"></use>
    
    <symbol id="radio-on">
        <path fill="rgba(255, 255, 255, 0.8)" d="M12.5,4c4.687,0,8.5,3.813,8.5,8.5c0,4.687-3.813,8.5-8.5,8.5C7.813,21,4,17.187,4,12.5C4,7.813,7.813,4,12.5,4 M12.5,0
            C5.597,0,0,5.597,0,12.5S5.597,25,12.5,25S25,19.403,25,12.5S19.403,0,12.5,0L12.5,0z"/>
        <circle fill="rgba(255, 255, 255, 0.8)" cx="12.5" cy="12.5" r="4.5"/>
    </symbol>
    
    <symbol id="radio-on-hover">
        <path fill="rgba(255, 255, 255, 1)" d="M12.5,4c4.687,0,8.5,3.813,8.5,8.5c0,4.687-3.813,8.5-8.5,8.5C7.813,21,4,17.187,4,12.5C4,7.813,7.813,4,12.5,4 M12.5,0
            C5.597,0,0,5.597,0,12.5S5.597,25,12.5,25S25,19.403,25,12.5S19.403,0,12.5,0L12.5,0z"/>
        <circle fill="rgba(255, 255, 255, 1)" cx="12.5" cy="12.5" r="4.5"/>
    </symbol>
    
    <symbol id="radio-on-disabled">
        <path fill="rgba(255, 255, 255, 0.4)" d="M12.5,4c4.687,0,8.5,3.813,8.5,8.5c0,4.687-3.813,8.5-8.5,8.5C7.813,21,4,17.187,4,12.5C4,7.813,7.813,4,12.5,4 M12.5,0
            C5.597,0,0,5.597,0,12.5S5.597,25,12.5,25S25,19.403,25,12.5S19.403,0,12.5,0L12.5,0z"/>
        <circle fill="rgba(255, 255, 255, 0.4)" cx="12.5" cy="12.5" r="4.5"/>
    </symbol>
    
    <view id="checkbox-off_view" viewBox="0 180 23 23" />
    <view id="checkbox-off-hover_view" viewBox="0 210 23 23" />
    <view id="checkbox-off-disabled_view" viewBox="0 240 23 23" />
    
    <use xlink:href="#checkbox-off" width="23" height="23" x="0" y="180"></use>
    <use xlink:href="#checkbox-off-hover" width="23" height="23" x="0" y="210"></use>
    <use xlink:href="#checkbox-off-disabled" width="23" height="23" x="0" y="240"></use>
    
    <symbol id="checkbox-off">
        <path fill="rgba(255, 255, 255, 0.8)" d="M20,2c0.542,0,1,0.458,1,1v17c0,0.542-0.458,1-1,1H3c-0.542,0-1-0.458-1-1V3c0-0.542,0.458-1,1-1H20 M20,0H3
	       C1.35,0,0,1.35,0,3v17c0,1.65,1.35,3,3,3h17c1.65,0,3-1.35,3-3V3C23,1.35,21.65,0,20,0L20,0z"/>
    </symbol>
    
    <symbol id="checkbox-off-hover">
        <path fill="rgba(255, 255, 255, 1)" d="M20,2c0.542,0,1,0.458,1,1v17c0,0.542-0.458,1-1,1H3c-0.542,0-1-0.458-1-1V3c0-0.542,0.458-1,1-1H20 M20,0H3
	       C1.35,0,0,1.35,0,3v17c0,1.65,1.35,3,3,3h17c1.65,0,3-1.35,3-3V3C23,1.35,21.65,0,20,0L20,0z"/>
    </symbol>
    
    <symbol id="checkbox-off-disabled">
        <path fill="rgba(255, 255, 255, 0.4)" d="M20,2c0.542,0,1,0.458,1,1v17c0,0.542-0.458,1-1,1H3c-0.542,0-1-0.458-1-1V3c0-0.542,0.458-1,1-1H20 M20,0H3
	       C1.35,0,0,1.35,0,3v17c0,1.65,1.35,3,3,3h17c1.65,0,3-1.35,3-3V3C23,1.35,21.65,0,20,0L20,0z"/>
    </symbol>
    
    <view id="checkbox-on_view" viewBox="0 270 27 23" />
    <view id="checkbox-on-hover_view" viewBox="0 300 27 23" />
    <view id="checkbox-on-disabled_view" viewBox="0 330 27 23" />
    
    <use xlink:href="#checkbox-on" width="27" height="23" x="0" y="270"></use>
    <use xlink:href="#checkbox-on-hover" width="27" height="23" x="0" y="300"></use>
    <use xlink:href="#checkbox-on-disabled" width="27" height="23" x="0" y="330"></use>
    
    <symbol id="checkbox-on">
        <polygon fill="rgba(255, 255, 255, 0.8)" points="7.285,7.486 4.456,10.315 12.239,18.098 26.171,4.166 23.343,1.337 12.239,12.439 		"/>
		<path fill="rgba(255, 255, 255, 0.8)" d="M21,20c0,0.542-0.458,1-1,1H3c-0.542,0-1-0.458-1-1V3c0-0.542,0.458-1,1-1h16.908l1.585-1.585C21.051,0.158,20.545,0,20,0
			H3C1.35,0,0,1.35,0,3v17c0,1.65,1.35,3,3,3h17c1.65,0,3-1.35,3-3v-9.829l-2,2V20z"/>
    </symbol>
    
    <symbol id="checkbox-on-hover">
        <polygon fill="rgba(255, 255, 255, 1)" points="7.285,7.486 4.456,10.315 12.239,18.098 26.171,4.166 23.343,1.337 12.239,12.439 		"/>
		<path fill="rgba(255, 255, 255, 1)" d="M21,20c0,0.542-0.458,1-1,1H3c-0.542,0-1-0.458-1-1V3c0-0.542,0.458-1,1-1h16.908l1.585-1.585C21.051,0.158,20.545,0,20,0
			H3C1.35,0,0,1.35,0,3v17c0,1.65,1.35,3,3,3h17c1.65,0,3-1.35,3-3v-9.829l-2,2V20z"/>
    </symbol>
    
    <symbol id="checkbox-on-disabled">
        <polygon fill="rgba(255, 255, 255, 0.4)" points="7.285,7.486 4.456,10.315 12.239,18.098 26.171,4.166 23.343,1.337 12.239,12.439 		"/>
		<path fill="rgba(255, 255, 255, 0.4)" d="M21,20c0,0.542-0.458,1-1,1H3c-0.542,0-1-0.458-1-1V3c0-0.542,0.458-1,1-1h16.908l1.585-1.585C21.051,0.158,20.545,0,20,0
			H3C1.35,0,0,1.35,0,3v17c0,1.65,1.35,3,3,3h17c1.65,0,3-1.35,3-3v-9.829l-2,2V20z"/>
    </symbol>
    
</svg>